inDegrees=no
num_controls=7
num_derivatives=13
num_iterations=121
num_multipliers=7
num_parameters=0
num_slacks=7
num_states=26
objective=0.545348
objective_accelerations=0.042058
objective_balance=0.003862
objective_effort=0.040917
objective_height=0.449069
objective_ligament=0.009442
solver_duration=1296.343410
status=Solve_Succeeded
success=true
DataType=double
version=3
OpenSimVersion=4.5
endheader
time	/jointset/ground_pelvis/pelvis_tilt/value	/jointset/ground_pelvis/pelvis_tx/value	/jointset/ground_pelvis/pelvis_ty/value	/jointset/hip_r/hip_flexion_r/value	/jointset/hip_r/hip_adduction_r/value	/jointset/hip_r/hip_rotation_r/value	/jointset/back/lumbar_extension/value	/jointset/patellofemoral_r/patellar_flexion_r/value	/jointset/knee_r/knee_flexion_r/value	/jointset/knee_r/knee_adduction_r/value	/jointset/knee_r/knee_rotation_r/value	/jointset/ankle_r/ankle_angle_r/value	/jointset/subtalar_r/subtalar_angle_r/value	/jointset/ground_pelvis/pelvis_tilt/speed	/jointset/ground_pelvis/pelvis_tx/speed	/jointset/ground_pelvis/pelvis_ty/speed	/jointset/hip_r/hip_flexion_r/speed	/jointset/hip_r/hip_adduction_r/speed	/jointset/hip_r/hip_rotation_r/speed	/jointset/back/lumbar_extension/speed	/jointset/patellofemoral_r/patellar_flexion_r/speed	/jointset/knee_r/knee_flexion_r/speed	/jointset/knee_r/knee_adduction_r/speed	/jointset/knee_r/knee_rotation_r/speed	/jointset/ankle_r/ankle_angle_r/speed	/jointset/subtalar_r/subtalar_angle_r/speed	/forceset/tau_hip_flexion_r	/forceset/tau_hip_adduction_r	/forceset/tau_hip_rotation_r	/forceset/tau_knee_flexion_r	/forceset/tau_ankle_angle_r	/forceset/tau_subtalar_angle_r	/forceset/tau_lumbar_extension	lambda_cid13_p0	lambda_cid14_p0	lambda_cid14_p1	lambda_cid14_p2	lambda_cid14_p3	lambda_cid14_p4	lambda_cid14_p5	/jointset/ground_pelvis/pelvis_tilt/accel	/jointset/ground_pelvis/pelvis_tx/accel	/jointset/ground_pelvis/pelvis_ty/accel	/jointset/hip_r/hip_flexion_r/accel	/jointset/hip_r/hip_adduction_r/accel	/jointset/hip_r/hip_rotation_r/accel	/jointset/back/lumbar_extension/accel	/jointset/patellofemoral_r/patellar_flexion_r/accel	/jointset/knee_r/knee_flexion_r/accel	/jointset/knee_r/knee_adduction_r/accel	/jointset/knee_r/knee_rotation_r/accel	/jointset/ankle_r/ankle_angle_r/accel	/jointset/subtalar_r/subtalar_angle_r/accel	gamma_cid13_p0	gamma_cid14_p0	gamma_cid14_p1	gamma_cid14_p2	gamma_cid14_p3	gamma_cid14_p4	gamma_cid14_p5
0	-0.006515163986919878	0.09626019955097041	0.9427240822725633	0.1762555222360518	-0.2321526491827899	-0.2616393702336311	-0.038598046466844	0.07317863873450844	0.07317863873451017	0.1745325635702375	0.1745316548246656	0.03247278518263602	-0.003451949995066976	0	0	0	0	0	0	0	0	0	0	0	0	0	0.2390438572457561	-0.1570340485349863	-0.04479710732099232	-0.4084255638014773	0.3837212181966302	-0.147595363746546	-0.1352059717650609	-39.07576105406778	72.64574942577224	-41.47102539423453	-4.247901554862382	-18.56434981108725	-682.7322973478933	54.90293534375877	-3.011060971526226	-1.626829354316956	-0.6861921529496043	10.3447950892299	0.2783075099117153	2.232169970189108	-5.43909954820101	8.65488365422809	8.654883654227683	-2.904215510975896	0.1691512820960419	2.103287694302221	0.7603877567334543	8.716843299001205e-08	5.322983595313186e-08	-5.582791875232097e-07	1.849561751131367e-07	2.758873874908959e-08	3.210525841020643e-08	-2.779487456828806e-07
0.01	-0.006658280291486767	0.09618047601592462	0.9426910000122586	0.1767567399958627	-0.2321378411412644	-0.2615199260045695	-0.03887229594760323	0.07359903545783929	0.0735990354578432	0.174387995635379	0.174528887413604	0.03257553317935568	-0.003413642625531736	-0.0284990577783201	-0.01581678791038715	-0.006600312357490039	0.09973507701151854	0.002886345495276234	0.02378247738096075	-0.0544605443179168	0.08373735412353973	0.08373735412353839	-0.02865429674931737	-0.0005375254711943382	0.02052471963346759	0.007576980302468616	0.2348709312182746	-0.1679572264978819	-0.04397692548734599	-0.4052504369446975	0.3787996650331595	-0.1356193752618151	-0.1314586220022009	-39.08971745625932	71.56079742203113	-36.53174365619157	-4.953206240837867	-19.18099849955032	-682.9234782213877	64.36865174049916	-2.750692253080375	-1.539910126587322	-0.6445234005866781	9.711598361849688	0.2824515269555272	2.4353758839345	-5.39112909864983	8.181845276308506	8.181845276308975	-2.807212037346853	-0.1627578834032627	2.023347507891016	0.7436123158510942	1.142833795064163e-07	5.501316887405726e-08	-7.29530119463264e-07	1.646999912907376e-07	5.276909053482752e-08	-1.373090728044312e-07	-3.056977556623997e-07
0.02	-0.007082659988252275	0.09594642327833768	0.9425924001036913	0.1782400553967389	-0.2320964389532622	-0.2611658391493203	-0.03967947031655365	0.07484654251938408	0.07484654251938487	0.1739646496769343	0.1745212340634785	0.03288278505441479	-0.003302113623202298	-0.05625267844046868	-0.03086584050823247	-0.01310352965251841	0.1964195282125139	0.005318829295351363	0.04692852523731823	-0.1065849776383583	0.1654220676427426	0.1654220676427583	-0.05575560471612215	-0.000977187809431341	0.04090077566781541	0.01464432655883858	0.2306980051907846	-0.1788804044607788	-0.04315674365371237	-0.4020753100879264	0.3738781118696833	-0.1236433867770864	-0.1277112722393424	-39.1309936060608	70.55249347432265	-31.59856349766326	-5.635236757428713	-19.90558263375136	-681.895506607658	73.60803261982424	-2.861973548292008	-1.473282291808501	-0.6667731404572739	9.734669927125237	0.1875351708714864	2.104884065268412	-4.971877348705995	8.244355533360704	8.244355533363983	-2.593617754473358	0.1887239086875527	2.07355497447836	0.658460947513739	1.413983260228207e-07	5.679650179498266e-08	-9.007810514033181e-07	1.444438074683386e-07	7.794944232056546e-08	-3.067234040190689e-07	-3.334467656419188e-07
0.03	-0.007781065211503727	0.09556447221853202	0.9424289939143883	0.1806766590170532	-0.2320327961972745	-0.2605861916286218	-0.04099605894279537	0.07690088452981132	0.07690088452981506	0.1732779992329077	0.1745120015177571	0.03339139705460627	-0.00312259862370957	-0.08327663918131878	-0.04551897225446599	-0.01957856967587176	0.2904880439801276	0.007371309136334506	0.06887613376596202	-0.1563783037422098	0.2450476726361073	0.2450476726361553	-0.08136004851415911	-0.0008888831177948511	0.06062269245497867	0.02117428352949842	0.221214534348959	-0.183657931254924	-0.04053298543781958	-0.3888049855840742	0.3526036571631035	-0.1110708253710683	-0.1204995354255908	-39.19860661720475	64.25612196711504	-27.32051008047719	-6.226170008187911	-15.91552100678158	-680.8995791547657	80.69209318014352	-2.59983200567738	-1.460503044403254	-0.6380606826318262	9.180979633923183	0.208231659799894	2.221017970534312	-4.929893661204488	7.761835322058015	7.761835322060843	-2.511821570291578	-0.08399040796102987	1.891699248973082	0.6374782864635383	1.620105210192901e-07	6.309775319279458e-08	-1.020562007145965e-06	1.595793653837947e-07	9.210004445729522e-08	-4.023867182021103e-07	-3.75644292444058e-07
0.04	-0.008745154975899493	0.09503615495558979	0.9422007990749801	0.1840415552415142	-0.2319498031890592	-0.2597908042778612	-0.04279994751407121	0.07973951705812045	0.0797395170581206	0.1723417115753283	0.1745030771874692	0.03409126606629732	-0.002880341011585955	-0.1093895866700121	-0.06013908113554937	-0.02606125967354422	0.3820780490414941	0.009188879740845379	0.09007649124948346	-0.2040449666452632	0.3222801712188176	0.3222801712188826	-0.1056830474251043	-0.000915544720666857	0.07915217796765325	0.0271928490850157	0.2117310635071201	-0.1884354580490709	-0.0379092272219523	-0.3755346610802304	0.331329202456518	-0.09849826396505297	-0.1132877986118441	-39.29119355251323	58.02924446289578	-23.04241137719898	-6.803262077574392	-12.02802263441052	-678.8124657356052	87.58024058073283	-2.679770897860731	-1.466677718778386	-0.6683031353210959	9.238967785875774	0.1405533235770256	1.95543385624392	-4.546544708546413	7.765734251229802	7.765734251230045	-2.337328777054987	0.1657306497858731	1.835068719580714	0.5561826644852434	1.824886386648331e-07	6.949215754889282e-08	-1.139281726265986e-06	1.754446499330212e-07	1.060232290754887e-07	-4.96529392858727e-07	-4.181397268095503e-07
0.05	-0.009966557687975792	0.09436244055461103	0.9419075082106242	0.1883105453775696	-0.2318499082218459	-0.258788489809985	-0.04506945610320758	0.08333975291452149	0.08333975291452397	0.1711687745853119	0.1744948176875359	0.03497165461368042	-0.002580257850405279	-0.1347569179542866	-0.07453107915994513	-0.03261192954624201	0.4712590887679357	0.01073918237263017	0.1102549224194445	-0.2495160398696127	0.3973984701413689	0.3973984701414113	-0.1286574240299335	-0.0007504137088228813	0.09681777823096899	0.0327478623414718	0.2045044905718436	-0.1754034334485753	-0.03627358625212758	-0.3685776205054274	0.3242871492235669	-0.1052060498290867	-0.107558991129537	-39.40713666289263	55.64961094608763	-26.40219889679478	-6.233422612277908	-10.88012805196183	-677.0399837183129	79.39131534171436	-2.445085099620349	-1.414531541852028	-0.6508014321703615	8.688552298248622	0.1544903562675753	2.029382664551839	-4.496281932657345	7.329561561533529	7.32956156153013	-2.240616824385464	-0.06012996418294915	1.716180542063631	0.5436120259039574	1.786713094346948e-07	6.319025040301933e-08	-1.102926776559807e-06	1.640237836585714e-07	1.097609018870832e-07	-5.627022584165364e-07	-4.02871118092983e-07
0.06	-0.01143760788407345	0.09354699203387215	0.941548240143756	0.1934575219573349	-0.2317360659036569	-0.2575883240469732	-0.04778345408524298	0.08768010852990052	0.08768010852990277	0.16977346888481	0.1744878026395065	0.03602547413616816	-0.002226934282724446	-0.159319083474953	-0.08848590508757155	-0.03925670017599844	0.5576753377831893	0.01197834993594931	0.1296467502765911	-0.2929428452250979	0.4703041230145493	0.4703041230145735	-0.1501567895223058	-0.0006666543396431785	0.1138383729885505	0.03784093038505458	0.1972779176365551	-0.1623714088480785	-0.03463794528230249	-0.3616205799306303	0.317245095990614	-0.1119138356931197	-0.1018301836472391	-39.54456361805365	53.33182593390693	-29.77023715214409	-5.640472426412783	-9.816121625699777	-674.2732333998052	71.00316603183472	-2.518737745139171	-1.379243299424439	-0.6871232867328276	8.686009643638185	0.07832630988388845	1.798113193681033	-4.13769113477358	7.32320504135562	7.323205041356725	-2.0423265545636	0.1494563212530308	1.706067618433951	0.4637936219105899	1.738310140203173e-07	5.63537617202207e-08	-1.060042367113579e-06	1.514540268231247e-07	1.13069711043663e-07	-6.276974478017644e-07	-3.851703391413816e-07
0.07000000000000001	-0.01315095751967398	0.09259421339109986	0.9411218554323795	0.1994559351522971	-0.2316113681371433	-0.2561997825885982	-0.05092100870166841	0.09273935150951031	0.09273935150951164	0.1681705283026582	0.1744828962146329	0.0372465434372375	-0.001824879813588105	-0.1832272909562846	-0.1019904705387697	-0.04604502435894305	0.6415523837729993	0.0129288145592179	0.1479331926482177	-0.3342376310322995	0.5411685934162415	0.5411685934162472	-0.1702122527284704	-0.0003477638663850371	0.1302747269258516	0.04251578129573355	0.1899991304194506	-0.1571083567474812	-0.03289945010327322	-0.3557604060532202	0.3098948942596031	-0.1112326895168263	-0.0960559692403562	-39.7015163869627	51.17367469370294	-29.9435869290944	-5.508555396014511	-9.086399609020335	-671.9353684113628	69.03085233393394	-2.308303616323463	-1.324137574489989	-0.6785306503349265	8.170328057205023	0.09842241654350102	1.824708482791275	-4.075805249672712	6.911651408333042	6.911651408329508	-1.954446865579244	-0.03179858042216634	1.597341116507919	0.4610538970564795	1.569413138506486e-07	4.689625953789397e-08	-9.2962137750851e-07	1.459045865999118e-07	1.07944784462823e-07	-6.555781200485089e-07	-3.518620188718593e-07
